<?xml version="1.0" encoding="UTF-8"?>
<svg id="Ebene_1" xmlns="http://www.w3.org/2000/svg" xmlns:xlink="http://www.w3.org/1999/xlink" version="1.1" viewBox="0 0 512 512">
  <!-- Generator: Adobe Illustrator 29.8.1, SVG Export Plug-In . SVG Version: 2.1.1 Build 2)  -->
  <defs>
    <style>
      .st0 {
        fill: #91a7b5;
      }

      .st1 {
        fill: #f25679;
      }

      .st2 {
        fill: #e0e0e0;
      }

      .st3 {
        fill: #e4de74;
      }

      .st4 {
        fill: #b8e6f3;
      }

      .st5 {
        fill: #16afc8;
      }

      .st6 {
        fill: #62cbeb;
      }

      .st7 {
        fill: #e3e9ed;
      }

      .st8 {
        fill: #fab164;
      }

      .st9 {
        fill: url(#Unbenannter_Verlauf_4);
      }

      .st10 {
        fill: url(#Unbenannter_Verlauf_8);
      }

      .st11 {
        fill: url(#Unbenannter_Verlauf_6);
      }

      .st12 {
        fill: url(#Unbenannter_Verlauf_7);
      }

      .st13 {
        fill: url(#Unbenannter_Verlauf_5);
      }

      .st14 {
        fill: url(#Unbenannter_Verlauf_9);
      }

      .st15 {
        fill: #c9a961;
      }

      .st16 {
        fill: #f17737;
      }

      .st17 {
        fill: #74136a;
      }

      .st18 {
        fill: #0b3f66;
      }

      .st19, .st20 {
        fill: #4caf50;
      }

      .st21 {
        fill: #f7991f;
      }

      .st22 {
        fill: #bfddb6;
      }

      .st23 {
        fill: #face58;
      }

      .st24 {
        fill: #efefef;
      }

      .st25 {
        fill: #e5e4e5;
      }

      .st26 {
        fill: #9fb9c9;
      }

      .st27 {
        fill: #fbe7b8;
      }

      .st28 {
        fill: #d5eff7;
      }

      .st29 {
        fill: #ca2128;
      }

      .st30 {
        fill: #f9be55;
      }

      .st31 {
        fill: #31a245;
      }

      .st32 {
        fill: #ef6150;
      }

      .st33 {
        fill: #01696f;
      }

      .st34 {
        fill: #d43265;
      }

      .st35 {
        fill: #ff6b6b;
      }

      .st36 {
        fill: #9bd9e0;
      }

      .st37 {
        fill: #ec442c;
      }

      .st38 {
        fill: #11819c;
      }

      .st39 {
        fill: #f6cdd1;
      }

      .st40 {
        fill: #de799c;
      }

      .st41 {
        fill: #fffeff;
      }

      .st42 {
        fill: #f3772c;
      }

      .st43 {
        fill: #c1d1dc;
      }

      .st20 {
        opacity: .7;
      }

      .st20, .st44, .st45 {
        isolation: isolate;
      }

      .st46 {
        fill: #ed325f;
      }

      .st47 {
        fill: #0a4d98;
      }

      .st48 {
        fill: #6b8caf;
      }

      .st49 {
        fill: #cdcdcd;
      }

      .st50 {
        fill: none;
        stroke: #fff;
        stroke-linecap: round;
        stroke-linejoin: round;
        stroke-width: 2.5px;
      }

      .st51 {
        fill: #f05f2a;
      }

      .st52 {
        fill: #4ecdc4;
      }

      .st53 {
        fill: #6ebb4c;
      }

      .st54 {
        fill: #8b7e74;
      }

      .st55 {
        fill: #177958;
      }

      .st56 {
        fill: #0f9cb5;
      }

      .st57 {
        fill: #cc2893;
      }

      .st58 {
        fill: #a52059;
      }

      .st59 {
        fill: #41c7d2;
      }

      .st44 {
        fill: gold;
        opacity: .8;
      }

      .st60 {
        fill: #fefefe;
      }

      .st61 {
        fill: #f9baba;
      }

      .st62 {
        fill: #165743;
      }

      .st63 {
        fill: #8a151e;
      }

      .st64 {
        fill: #f7a83c;
      }

      .st65 {
        fill: url(#Unbenannter_Verlauf_12);
      }

      .st66 {
        fill: url(#Unbenannter_Verlauf_11);
      }

      .st45 {
        fill: #2196f3;
        opacity: .6;
      }

      .st67 {
        fill: #166480;
      }

      .st68 {
        fill: #a3a4a8;
      }

      .st69 {
        fill: #0274b9;
      }

      .st70 {
        fill: #b4d273;
      }

      .st71 {
        fill: #85be70;
      }

      .st72 {
        fill: #30a6d6;
      }

      .st73 {
        fill: #44b5db;
      }

      .st74 {
        fill: #249549;
      }

      .st75 {
        fill: #e8e69c;
      }

      .st76 {
        fill: #5e8cd0;
      }

      .st77 {
        fill: #f37e90;
      }

      .st78 {
        fill: #92c445;
      }
    </style>
    <linearGradient id="Unbenannter_Verlauf_6" data-name="Unbenannter Verlauf 6" x1="93.5" y1="323.6" x2="62.7" y2="337.7" gradientUnits="userSpaceOnUse">
      <stop offset="0" stop-color="#0f5ca9"/>
      <stop offset="1" stop-color="#0672b7"/>
    </linearGradient>
    <linearGradient id="Unbenannter_Verlauf_11" data-name="Unbenannter Verlauf 11" x1="91.3" y1="174.8" x2="99.3" y2="195.4" gradientUnits="userSpaceOnUse">
      <stop offset="0" stop-color="#54af48"/>
      <stop offset="1" stop-color="#22914b"/>
    </linearGradient>
    <linearGradient id="Unbenannter_Verlauf_4" data-name="Unbenannter Verlauf 4" x1="203.6" y1="229.3" x2="69.1" y2="244.2" gradientUnits="userSpaceOnUse">
      <stop offset="0" stop-color="#0b4d9a"/>
      <stop offset="1" stop-color="#017cbd"/>
    </linearGradient>
    <linearGradient id="Unbenannter_Verlauf_5" data-name="Unbenannter Verlauf 5" x1="176" y1="205.2" x2="68.4" y2="258.9" gradientUnits="userSpaceOnUse">
      <stop offset="0" stop-color="#2e8ec9"/>
      <stop offset="1" stop-color="#30a4d5"/>
    </linearGradient>
    <linearGradient id="Unbenannter_Verlauf_9" data-name="Unbenannter Verlauf 9" x1="457.8" y1="317.9" x2="418.5" y2="320.9" gradientUnits="userSpaceOnUse">
      <stop offset="0" stop-color="#5bb54d"/>
      <stop offset="1" stop-color="#a1ce58"/>
    </linearGradient>
    <linearGradient id="Unbenannter_Verlauf_7" data-name="Unbenannter Verlauf 7" x1="462.3" y1="229.8" x2="327.2" y2="238.1" gradientUnits="userSpaceOnUse">
      <stop offset="0" stop-color="#db1538"/>
      <stop offset="1" stop-color="#f4782d"/>
    </linearGradient>
    <linearGradient id="Unbenannter_Verlauf_8" data-name="Unbenannter Verlauf 8" x1="432" y1="208.4" x2="321.6" y2="246.4" gradientUnits="userSpaceOnUse">
      <stop offset="0" stop-color="#ef735d"/>
      <stop offset="1" stop-color="#f8a565"/>
    </linearGradient>
    <linearGradient id="Unbenannter_Verlauf_12" data-name="Unbenannter Verlauf 12" x1="323.2" y1="176" x2="382" y2="209.6" gradientUnits="userSpaceOnUse">
      <stop offset="0" stop-color="#f8a41e"/>
      <stop offset="1" stop-color="#ec4236"/>
    </linearGradient>
  </defs>
  <g>
    <g>
      <rect class="st24" x="18" y="122.7" width="222.2" height="266.7" rx="8" ry="8"/>
      <rect class="st2" x="40.2" y="144.9" width="177.8" height="133.3" rx="4" ry="4"/>
      <circle class="st44" cx="84.7" cy="189.3" r="26.7"/>
      <path class="st20" d="M40.2,244.9l44.4-44.4,44.4,22.2,44.4-44.4,44.4,33.3v66.7H40.2v-33.3h0Z"/>
      <path class="st45" d="M129.1,222.7l44.4-44.4,44.4,33.3v66.7H40.2l88.9-55.6h0Z"/>
      <rect class="st54" x="51.3" y="300.4" width="44.4" height="44.4" rx="3" ry="3"/>
      <rect class="st15" x="106.9" y="300.4" width="44.4" height="44.4" rx="3" ry="3"/>
      <rect class="st48" x="162.4" y="300.4" width="44.4" height="44.4" rx="3" ry="3"/>
    </g>
    <g>
      <rect class="st22" x="274.8" y="122.7" width="222.2" height="266.7" rx="8" ry="8"/>
      <rect class="st2" x="297" y="144.9" width="177.8" height="133.3" rx="4" ry="4"/>
      <circle class="st44" cx="341.4" cy="189.3" r="26.7"/>
      <path class="st20" d="M297,244.9l44.4-44.4,44.4,22.2,44.4-44.4,44.4,33.3v66.7h-177.8v-33.3h0Z"/>
      <path class="st45" d="M385.9,222.7l44.4-44.4,44.4,33.3v66.7h-177.8l88.9-55.6h0Z"/>
      <rect class="st35" x="308.1" y="300.4" width="44.4" height="44.4" rx="3" ry="3"/>
      <rect class="st52" x="363.7" y="300.4" width="44.4" height="44.4" rx="3" ry="3"/>
      <circle class="st19" cx="441.4" cy="322.7" r="26.7"/>
      <path class="st50" d="M428.1,322.7l8.9,8.9,17.8-17.8"/>
    </g>
  </g>
  <g id="Generatives_Objekt">
    <path class="st60" d="M274.4,284.6v-3.9c0,1.3,0,2.6,0,3.9Z"/>
    <g>
      <path class="st60" d="M274.4,292v-3.5c0,1.2,0,2.3,0,3.5Z"/>
      <g>
        <path class="st43" d="M240.1,287.7l-22.1-.4c0-3,0-6.1,0-9.1,0-11,0-22,0-33s0-22.9,0-34.3c0-16.7,2.8-44.3.4-59.7s-2.7-5.9-5.9-7.2H45.6c-3.1,1-4.5,3.2-5.9,5.9,0,30.7.1,61.5,0,92.2l-21.7.4c0-37.6-.9-75.4-.4-113,.7-4.1,3.1-6.6,7.2-7.6l210.4.4c2.6,1.1,4.5,3.3,5.4,5.9.4,52.9-.3,107.7-.4,159.4Z"/>
        <path class="st43" d="M240.1,328.9c0,13,2.8,41.9.4,54.5s-3.6,5.4-6.3,6.3H23.9c-1.4-.3-4.3-2.5-5-3.7-2.9-5-.9-35.3-.9-43.2h21.7c0,4.7-.8,13.7.4,17.8-1.5,4.6,0,8.8,4.6,10.8h168.8c6-2.3,4.8-7.6,5-12.6.4-9.8,0-19.7,0-29.5l21.7-.4Z"/>
        <path class="st7" d="M39.7,242.1c0,1.1.4,2.7.4,3,0,10.5-.2,21.2-.4,31.7s.4,1,.4,1.3c-.1,5.3-1.1,10.7-1.1,16.1l-20.6,3c0-18.2-.4-36.4-.4-54.7l21.7-.4Z"/>
        <path class="st7" d="M240.1,287.7c0,13.7,0,27.5,0,41.2l-21.7.4c0-14-.4-28.1-.4-42.1l22.1.4Z"/>
        <path class="st7" d="M39.7,342.8h-21.7c0-9,.4-18,.4-26.9l21.3,3.7c.1,7.7-.2,15.5,0,23.2Z"/>
        <path class="st26" d="M40.1,360.6c.8,2.8,3.3,4.2,5.9,5.2h166.2c3.4-1.1,5.3-3.7,6.3-6.9-.2,5,1,10.3-5,12.6H44.7c-4.6-2-6.1-6.2-4.6-10.8Z"/>
        <g>
          <path class="st60" d="M217.6,278.1h.4c0,3,0,6.1,0,9.1,0,14,.4,28.1.4,42.1s.4,19.7,0,29.5c-1,3.2-2.9,5.8-6.3,6.9H46c-2.5-1-5-2.4-5.9-5.2-1.2-4-.3-13.1-.4-17.8-.2-7.7.1-15.5,0-23.2l-21.3-3.7c0-6.2,0-12.4,0-18.7l20.6-3c0-5.3,1-10.8,1.1-16.1h.4c.8.3,1.4-.4,1.7-.4,58.4.8,116.9.3,175.3.4Z"/>
          <g>
            <path class="st21" d="M206.3,301.6c-10.4,17.3-25.4,30.5-43.4,39.5-1.5-12,1.1-26.9,0-39.3l1.5-1.5,41.9,1.3Z"/>
            <g>
              <path class="st78" d="M150.8,301.6c-10.4,17.4-25.2,30.6-43.4,39.5-.7-3.8-1.2-35.8-.4-38.8s1.2-1.8,1.5-2l42.3,1.3Z"/>
              <path class="st31" d="M107.4,341c18.2-8.9,33-22.1,43.4-39.5l.4,41.4-2,2h-39.9c-2.6-1.1-1.6-2.1-2-3.9Z"/>
            </g>
            <g>
              <path class="st51" d="M162.9,341c18-9,33-22.1,43.4-39.5l.4,41.4c-.5.3-1.1,1.3-1.5,1.5-4.9,2.5-33.1-1-40.4.4-2.2-.9-1.7-2.1-2-3.9Z"/>
              <g>
                <path class="st73" d="M95.2,301.6c-10.4,17.4-25.1,30.7-43.4,39.5-.7-3.8-1.2-35.8-.4-38.8s1.2-1.8,1.5-2l42.3,1.3Z"/>
                <path class="st11" d="M51.8,341c18.3-8.8,33-22.1,43.4-39.5.9,1.7.9,35.2.4,38.8s-.4,3.5-1.5,4.1l-40.4.4c-2.6-1.1-1.6-2.1-2-3.9Z"/>
              </g>
            </g>
          </g>
        </g>
        <g>
          <path class="st60" d="M218,210.9l-45.6-32.1c-12.9,12.1-24.6,27.1-38,38.6s-4.6,3.1-6.7,4.8c-8.4-4.5-17-8.8-25.6-13,16.5-14.3,9.6-42.7-12.1-46.4s-37.2,14.6-30.4,34.7,3.6,7.1,6.5,10,3.9,3.4,6.1,4.8c-11,10.6-21.5,22-32.1,33,0-.4-.4-2-.4-3,.1-30.7,0-61.5,0-92.2,1.3-2.7,2.7-4.9,5.9-5.9h167c3.2,1.3,5.3,3.7,5.9,7.2,2.4,15.4-.4,43-.4,59.7Z"/>
          <g>
            <path class="st78" d="M90,162.7c-3.5,2.1,1.2,4.6,2.2,6.7,4,8.4,4.9,18.8-1.3,26.5s-5,3.5-6.1,5-.4.4-.4.4h-.4c-8,.9-13.3,1.3-20.6-2.6s-2.2-3.2-3.7-1.3c-6.8-20.1,9.5-38.3,30.4-34.7Z"/>
            <path class="st66" d="M102.2,209.1c-5.7-2.8-11.5-5.6-17.4-8.2,1.1-1.5,4.4-3,6.1-5,6.2-7.7,5.3-18.1,1.3-26.5s-5.6-4.6-2.2-6.7c21.8,3.8,28.6,32.1,12.1,46.4Z"/>
            <path class="st53" d="M83.9,201.3c-1.7,2.5-4.4,4-6.5,6.1h-11.3c-2.9-2.9-5.2-6.1-6.5-10,1.5-1.9,2.7.8,3.7,1.3,7.3,3.9,12.6,3.5,20.6,2.6Z"/>
            <path class="st31" d="M77.4,207.4c-1.7,1.6-3.6,3.2-5.2,4.8-2.2-1.3-4.3-3-6.1-4.8h11.3Z"/>
          </g>
          <g>
            <path class="st18" d="M218,245.2c0,11,0,22,0,33h-.4c-18.5-29.6-33.5-61.4-43.4-95,0,0,.1-1,1.3.2,2.1,2,5.9,10.4,7.8,13.5,10.7,16.7,22.4,32.8,34.7,48.4Z"/>
            <path class="st47" d="M218,210.9c0,11.4,0,22.9,0,34.3-12.3-15.6-24-31.7-34.7-48.4s-5.8-11.4-7.8-13.5-1.2-.2-1.3-.2c-1.1-.3-.6-.3-1.3-.9,0-1.2,0-2.3-.4-3.5l45.6,32.1Z"/>
            <path class="st9" d="M174.2,183.1c9.9,33.6,24.9,65.4,43.4,95-58.4-.1-116.9.3-175.3-.4,13.6-4,27.3-8.1,41-11.7,23.8-6.2,69.2-12.3,83.5-33.6s6.9-34.5,6.1-50.1c.7.6.2.6,1.3.9Z"/>
            <path class="st13" d="M172.9,182.2c.8,15.6,3,36.7-6.1,50.1-14.4,21.3-59.7,27.4-83.5,33.6-13.7,3.6-27.4,7.7-41,11.7-.4,0-1,.8-1.7.4-.1-1,.8-1.3,1.5-1.7,11.1-6.4,21.9-13.2,32.8-20s19.4-12.4,29.1-18.7,6.7-3.9,10-6.1c4.8-3.2,9.5-6.2,13.9-9.5s4.6-2.9,6.7-4.8c13.3-11.5,25.1-26.5,38-38.6.5,1.2.4,2.3.4,3.5Z"/>
            <g>
              <path class="st69" d="M74.8,256.4c-10.8,6.8-21.6,13.6-32.8,20s-1.7.7-1.5,1.7h-.4c0-.3-.5-.5-.4-1.3,14.4-17.7,28.3-37.3,38.2-57.9,2.3-4.9,3.8-11.2,6.1-15.8,2.1,18.1-3.3,36.5-9.1,53.4Z"/>
              <path class="st72" d="M84.4,201.3c0,0,0,1-.4,1.7-2.3,4.6-3.7,11-6.1,15.8-9.8,20.6-23.8,40.2-38.2,57.9.2-10.5.4-21.2.4-31.7,10.6-11,21.1-22.3,32.1-33s3.5-3.1,5.2-4.8,4.8-3.6,6.5-6.1h.4Z"/>
              <path class="st47" d="M102.2,209.1c8.6,4.2,17.2,8.5,25.6,13-4.4,3.3-9.1,6.4-13.9,9.5l-26.7-26.9,16.7,33c-9.6,6.3-19.3,12.5-29.1,18.7,5.8-16.9,11.2-35.3,9.1-53.4.4-.7.4-1.7.4-1.7s.2,0,.4-.4c5.8,2.7,11.6,5.4,17.4,8.2Z"/>
              <path class="st18" d="M113.9,231.7c-3.2,2.1-6.7,4-10,6.1l-16.7-33,26.7,26.9Z"/>
            </g>
          </g>
        </g>
      </g>
      <g>
        <path class="st43" d="M423.2,122.8l-.2,20.4-31.5.9c-29.7,0-59.4,0-89.2,0-3.2,1.4-5,3.3-5.9,6.7,0,31,0,62.1,0,93.1h-21.7l.4-116.1c1.4-2.5,2.8-3.8,5.4-5,47.5-.2,95,.3,142.5,0Z"/>
        <path class="st26" d="M497,253c0-5.1-.7-10.5-.7-15.6l-21.5-.9c0-8.5,0-17.1,0-25.6,0-16.8,2.8-44.3.4-59.7-.6-3.6-2.9-6.1-6.3-7.2-25.8,0-51.6,0-77.4,0l31.5-.9.2-20.4c18.2-.1,47.2-3.3,65.7-.9s7.3,2.3,8,5.9c1.2,5.7.3,23.2.4,30.4.5,31.5,0,63.3-.4,94.8Z"/>
        <path class="st43" d="M296.5,341.9c0,4.7-.7,14.2.4,18.2-1.5,4.7.2,9.7,5,11.3,31.6,0,63.2,0,94.8,0l.4,17.8c-39,0-78,.4-116.9-.4-1.5-.5-4.7-3.6-5-5-1.8-7.9.2-32,0-41.9h21.3Z"/>
        <path class="st26" d="M397.2,389.2l-.4-17.8c24.5,0,49,0,73.5,0,4.6-2.2,4.8-4.5,5-9.1,2.9-.4,19.8,1.3,21,.4s-.5-7,.7-8.2c0,7.5,1.4,22.6,0,29.3s-3.3,4.9-5,5.4c-31.6,1.2-63.2,0-94.8,0Z"/>
        <path class="st60" d="M296.5,260.8c0,5.8.4,11.6.4,17.4,0,19.1-.5,38.3-.4,57.3l-21.3-.4c-.2-14.3-.9-28.5-.9-43s0-2.3,0-3.5,0-2.6,0-3.9,0-2.6,0-3.9c0-6.4.4-12.8.4-19.1l21.7-.9Z"/>
        <path class="st43" d="M497,253c.1,11.9-.5,24.1-.4,36l-21.5-.4c0-3.4-.6-7-.7-10.4s0-.3,0-.4c-.2-10.7.4-21.8.4-32.5s0-5.8,0-8.7l21.5.9c0,5.2.6,10.5.7,15.6Z"/>
        <path class="st43" d="M497,328.9c0,8.5,0,17.1,0,25.6-1.1,1.2.1,7.7-.7,8.2-1.3.9-18.1-.9-21-.4,0-1.2.6-3.4-.4-3,1.6-7.1.4-22.3.4-30.4h21.7Z"/>
        <path class="st60" d="M496.6,295.9c0,11,.4,22,.4,33h-21.7v-2.2c3.4-.8,18.7,1,20.6,0s.2-2.5.7-3.3l-21.3.2c0-9.6-.9-19.4-.4-29.1l21.7,1.3Z"/>
        <path class="st60" d="M296.5,243.9c0,.6,0,1.2,0,1.7,0,3.6,0,7.2,0,10.8l-21.7.9c0-4.5,0-9,0-13.5h21.7Z"/>
        <path class="st43" d="M496.6,289.8c0,2,0,4.1,0,6.1l-21.7-1.3c0-.9-.2-4.9.2-5.2l21.5.4Z"/>
        <path class="st60" d="M296.5,338.4c0,1.2,0,2.3,0,3.5h-21.3c0-1.2,0-2.3,0-3.5h21.3Z"/>
        <path class="st43" d="M296.5,256.4c0,1.4,0,2.9,0,4.3l-21.7.9c0-1.4,0-2.9,0-4.3l21.7-.9Z"/>
        <path class="st43" d="M296.5,335.4c0,1,0,2,0,3h-21.3c0-1.2,0-2.3,0-3.5l21.3.4Z"/>
        <path class="st0" d="M475.3,362.3c-.2,4.6-.4,6.9-5,9.1-24.5,0-49,0-73.5,0s-63.2,0-94.8,0c-4.8-1.6-6.5-6.6-5-11.3.6,2.2,3.6,5.2,5.9,5.6h166.2c3.3-1.2,5.1-3.2,5.9-6.5,1-.4.5,1.9.4,3Z"/>
        <path class="st43" d="M475.3,326.7c0-1,0-2.1,0-3l21.3-.2c-.4.7.3,2.7-.7,3.3-1.9,1-17.2-.8-20.6,0Z"/>
        <g>
          <path class="st60" d="M474.4,278.1c0,3.4.7,7,.7,10.4l21.5.4c0,.3,0,.6,0,.9l-21.5-.4c-.4.3-.2,4.3-.2,5.2-.4,9.7.4,19.5.4,29.1s0,2,0,3v2.2c0,8,1.2,23.2-.4,30.4s-2.6,5.3-5.9,6.5h-166.2c-2.2-.4-5.2-3.4-5.9-5.6-1.2-4.1-.4-13.5-.4-18.2s0-2.3,0-3.5,0-2,0-3c0-19,.5-38.2.4-57.3h.9c1.1,0,1.2-.4,1.3-.4l175.3.4Z"/>
          <g>
            <path class="st57" d="M352.1,301.6c-10.2,17.8-25.6,30.2-43.4,39.9-1.8-11.6,1.3-27.6,0-39.7l1.5-1.5,41.9,1.3Z"/>
            <g>
              <path class="st5" d="M407.6,301.6c-10.4,17.4-25.2,30.6-43.4,39.5-1.4-12.1,1.1-26.9,0-39.3l1.5-1.5c11.3.6,23.1-1.1,34.3-.4s6.7,0,7.6,1.7Z"/>
              <path class="st33" d="M364.2,341c18.2-8.9,33-22,43.4-39.5,2.5,4.8-1,34.2.4,41.4-.5.4-1,1.2-1.5,1.5-1.7,1-37.2,1-39.9.4s-2.1-1.9-2.4-3.9Z"/>
            </g>
            <path class="st17" d="M308.7,341.5c17.8-9.7,33.2-22.1,43.4-39.9l.4,41.4-1.5,1.5h-40.8c-1.7-.8-1.3-1.7-1.5-3Z"/>
            <g>
              <path class="st74" d="M430.2,346.3c3.8,0,7.5.6,11.3,0,11.7-1.8,22.6-12.1,23.9-24.1.4-4.2-1.1-7.9-.4-11.9,11.9,23.1-11.4,46.6-34.7,36Z"/>
              <path class="st31" d="M464.9,310.2c-.6,4,.9,7.8.4,11.9-1.3,12-12.2,22.3-23.9,24.1-3.4-1.2-4.2,1.1-3.5-3.5,19.8-.2,30.5-23.6,21.3-39.9,2.9,2.7,3.8,3.9,5.6,7.4Z"/>
              <path class="st53" d="M438,342.8c-.8,4.6.1,2.2,3.5,3.5-3.8.6-7.5,0-11.3,0-5.4-2.5-7.1-4.2-10.4-9.1,1.2-3.4,6.7,3,8.9,3.9s6.2,1.8,9.3,1.7Z"/>
              <g>
                <path class="st14" d="M459.3,302.9c9.3,16.3-1.5,39.7-21.3,39.9-3.1,0-6.4-.5-9.3-1.7s-7.7-7.3-8.9-3.9c-17.8-26.7,16.6-54.9,39.5-34.3Z"/>
                <path class="st60" d="M456,312.4c.3,0,1-.1,1.1.2l-21,17.6c-3.4-3.3-5-7.1-10.2-7.6l30.2-10.2Z"/>
              </g>
            </g>
          </g>
        </g>
        <g>
          <path class="st60" d="M391.6,144.1c25.8,0,51.6,0,77.4,0,3.4,1.1,5.7,3.6,6.3,7.2,2.4,15.3-.4,42.9-.4,59.7l-45.6-32.1c-14.7,14.5-27.6,30.9-44.3,43.4l-26-13.2c12.8-10.7,12.3-31.4-1.1-41.4-20.9-15.6-50,4.5-41.4,29.9,1.3,3.8,3.7,7.1,6.5,10s4.1,3.8,6.5,4.8c-11.2,10.9-22.1,22.1-33,33.4,0-.6,0-1.2,0-1.7,0-31,0-62,0-93.1.9-3.4,2.7-5.4,5.9-6.7,29.7,0,59.4,0,89.2,0Z"/>
          <g>
            <path class="st12" d="M431.1,182.7c10.4,33.4,24.5,65.6,43.4,95,0,.1,0,.3,0,.4l-175.3-.4c28.3-7.8,58.8-14.5,86.6-23,43.1-13.2,47.1-28.7,44-72,.4,0,.9,0,1.3,0Z"/>
            <path class="st10" d="M429.7,182.7c3.1,43.3-.9,58.9-44,72-27.7,8.5-58.2,15.2-86.6,23,0,0-.2.4-1.3.4-.2-.6.3-.8.4-1.3,12.1-6.5,23.5-14.4,35.1-21.7s18-11.1,26.9-16.9,7-4.2,10.4-6.5c4.8-3.2,9.6-6,14.3-9.5,16.6-12.4,29.6-28.9,44.3-43.4.8,1.2.3,2.6.4,3.9Z"/>
            <path class="st8" d="M341.2,201.8c-3.7,11.9-9,23.3-15.2,34.1s-26.1,35.2-27.8,41-.6.7-.4,1.3h-.9c0-5.7-.4-11.6-.4-17.4s0-2.9,0-4.3c0-3.6,0-7.2,0-10.8,10.8-11.3,21.8-22.5,33-33.4s3.5-3.1,5.2-4.8,4.3-4.1,6.5-6.1v.4Z"/>
            <path class="st29" d="M474.9,210.9c0,8.5,0,17.1,0,25.6s0,5.8,0,8.7c-12.4-15.2-23.8-31.3-34.3-47.9s-8.1-14.7-8.9-15-.6.4-.7.4c-.4,0-.9,0-1.3,0,0-1.3.3-2.7-.4-3.9l45.6,32.1Z"/>
            <path class="st63" d="M474.9,245.2c0,10.8-.6,21.8-.4,32.5-18.9-29.4-33-61.7-43.4-95,0,0,0-.7.7-.4s7.7,13,8.9,15c10.5,16.6,21.9,32.7,34.3,47.9Z"/>
            <path class="st42" d="M342.1,203.5c-.8,8-.8,16.1-2.2,24.1s-4.9,18.3-6.5,27.6c-11.6,7.3-23,15.2-35.1,21.7,1.6-5.8,22.8-32.4,27.8-41s11.5-22.1,15.2-34.1l.9,1.7Z"/>
            <path class="st37" d="M344.3,204.4l16.1,33.8c-8.9,5.8-17.9,11.3-26.9,16.9,1.6-9.3,5-18.3,6.5-27.6s1.4-16.1,2.2-24.1-.2-1.5.2-1.7c1,.5,1.4,2.1,2,2.6Z"/>
            <path class="st29" d="M370.7,231.7c-3.4,2.3-7,4.3-10.4,6.5l-16.1-33.8c7.9,7.9,18.6,17.2,25.6,25.4s.9,1.3.9,2Z"/>
            <g>
              <path class="st65" d="M385.1,222.2c-4.7,3.5-9.5,6.3-14.3,9.5,0-.7-.4-1.4-.9-2-7-8.2-17.7-17.5-25.6-25.4s-.9-2.1-2-2.6c-.4.3-.2,1.2-.2,1.7l-.9-1.7v-.4c-6.7.6-12,1.1-18.4-1.3s-4.1-3.7-6.3-2.6c-8.5-25.5,20.6-45.5,41.4-29.9s13.9,30.7,1.1,41.4l26,13.2Z"/>
              <path class="st42" d="M341.2,201.3c-2.2,2-4.4,4-6.5,6.1h-11.7c-2.8-2.9-5.2-6.1-6.5-10,2.2-1.1,4.3,1.8,6.3,2.6,6.4,2.4,11.7,1.9,18.4,1.3Z"/>
              <path class="st51" d="M334.7,207.4c-1.7,1.6-3.5,3.1-5.2,4.8-2.4-1-4.7-3-6.5-4.8h11.7Z"/>
            </g>
          </g>
        </g>
      </g>
    </g>
  </g>
  <g id="Generatives_Objekt1" data-name="Generatives_Objekt">
    <g>
      <path class="st49" d="M23.9,121.9h210.4c3.5,1.1,5.6,2.7,6.7,6.3v254.7c-1.1,3.4-3.1,5.3-6.3,6.7H24.3c-3.7-1.3-5.6-3.5-6.7-7.2v-253.4c.9-3.5,3-5.7,6.3-7.2Z"/>
      <path class="st41" d="M37.7,132.8h184.4c4.7.8,7.4,3.4,8.5,8v229.1c-.7,4.4-3,7.1-7.2,8.5H34.7c-3.5-1.2-5.6-3.3-6.7-6.7v-231.7c1.5-4.8,5-6.7,9.8-7.2Z"/>
      <g>
        <polygon class="st25" points="42.5 361.9 216.5 361.9 217.1 363.8 42.5 364.5 42.5 361.9"/>
        <polygon class="st25" points="42.5 356.7 216.5 356.7 217.1 358.6 42.5 359.3 42.5 356.7"/>
        <polygon class="st25" points="42.5 367.1 216.5 367.1 217.1 369 42.5 369.7 42.5 367.1"/>
        <polygon class="st25" points="42.5 351.5 216.5 351.5 217.1 353.4 43.4 354.1 41.9 353.4 42.5 351.5"/>
        <g>
          <g>
            <polygon class="st64" points="162.5 343.2 205.4 300.7 205.7 344.1 162.5 343.2"/>
            <polygon class="st30" points="205.4 300.7 162.5 343.2 163.1 300.7 205.4 300.7"/>
          </g>
          <g>
            <polygon class="st46" points="106.9 343.2 149.9 300.7 150.1 344.1 106.9 343.2"/>
            <polygon class="st1" points="149.9 300.7 106.9 343.2 107.6 300.7 149.9 300.7"/>
          </g>
          <g>
            <polygon class="st59" points="95.2 301.1 94.6 344.1 52.3 344.1 95.2 301.1"/>
            <polygon class="st36" points="95.2 301.1 52.3 344.1 52.1 300.7 95.2 301.1"/>
          </g>
          <g>
            <path class="st23" d="M83.9,144.5l-.4,17.8c-27.4.8-35.2,37.3-11.5,50.3,1.4,0,9.6-10,11.9-11.3-3.3,9.4-8.9,17.9-13.9,26.5-1.6,1.1-2.2,3.1-3,4.8-1,1.7-2,3.5-3,5.2-.2.4-.6.8-.9,1.3-.8,1.4-1.7,2.9-2.6,4.3-.9,1.4-2.3,2.6-2.6,4.3-4.6,7.7-10.1,15.7-14.3,23.6s-2.1,3.6-1.3,5c-.5,0-1.2.7-1.7.9l-.4-129.1c.3-1.2,2.1-3.4,3.3-3.7,6.6-1.6,31.9,0,40.6,0Z"/>
            <path class="st64" d="M173.8,144.5v33.8c-1.4,0-1.8,1.5-2.6,2.2-13.4,11-25.5,27.2-39,38.6-.7-15.9,0-31.8,0-47.7s.1-18,0-26.9c13.9,0,27.8,0,41.7,0Z"/>
            <path class="st16" d="M218,210.4l-43.8-32.1h-.4v-33.8c8.8,0,34.9-1.7,41.4,0s2.6,1.9,2.8,2.4c1.3,21.2,0,42.4,0,63.6Z"/>
            <path class="st23" d="M132.1,144.5c.1,8.9,0,17.9,0,26.9l-.9,48.6c-1.1.9-1.9,1.2-2.6,1.7-8.6-4.1-17-9.3-25.6-13.5,17.5-17.5,5.6-46.7-19.5-46l.4-17.8c16,0,32.1,0,48.2,0Z"/>
            <path class="st41" d="M83.5,162.3c25.1-.8,37.1,28.5,19.5,46-5.8-2.8-11.9-5.3-17.8-7.8-.4,0-.8.6-1.3.9-2.4,1.3-10.6,11.3-11.9,11.3-23.7-13.1-15.9-49.5,11.5-50.3Z"/>
            <path class="st27" d="M132.1,219.1c-.3.2-.5.6-.9.9l.9-48.6c0,15.9-.7,31.8,0,47.7Z"/>
            <g>
              <path class="st59" d="M173.8,178.3h.4v.4c-6.7,15.4-12.8,31.4-20,46.9-1.6.9-1.7,2.9-2.2,4.3-5.2,11-11.4,21.6-15.6,33-2.5,4.9-5.3,9.7-7.4,14.8-29.4,0-58.9-.4-88.3.4l-.2-.9c.5-.1,1.2-.8,1.7-.9s.6,0,.9,0c16.8-3.4,50.2-23.8,65.7-33.4s29.5-20,44.9-38.8,12.2-15.5,17.4-23.6c.8-.7,1.2-2.2,2.6-2.2Z"/>
              <path class="st56" d="M174.2,180.1l3,97.6c-16,0-32.1,0-48.2,0,2.1-5.1,4.9-9.9,7.4-14.8,5.3-10.3,11.8-22.1,15.6-33,.7-1.5,1.5-2.8,2.2-4.3,7.1-15.4,13.2-31.4,20-46.9v1.3Z"/>
              <path class="st38" d="M218.5,275.1c0,.6.2,2.3-.2,2.6-13.7,0-27.3,0-41,0l-3-97.6,44.3,95Z"/>
              <path class="st67" d="M218,210.4c0,19.5,2.6,46,.4,64.6l-44.3-95v-1.7l43.8,32.1Z"/>
              <path class="st36" d="M43.2,276.4c13.6-8.7,27.1-17.8,40.8-26.5,7.1-4.5,14.2-8.9,21.3-13.5s7.6-4.5,11.3-6.9,8.2-4.8,12.1-7.8,1.5-.8,2.6-1.7.6-.6.9-.9c13.5-11.4,25.7-27.7,39-38.6-5.2,8.2-11.2,16.1-17.4,23.6-15.4,18.8-24.3,26.1-44.9,38.8s-48.9,30-65.7,33.4Z"/>
              <path class="st36" d="M136.4,262.9c4.3-11.4,10.4-22,15.6-33-3.8,10.9-10.3,22.6-15.6,33Z"/>
              <path class="st36" d="M154.2,225.6c-.7,1.5-1.5,2.9-2.2,4.3.5-1.5.6-3.4,2.2-4.3Z"/>
              <g>
                <path class="st70" d="M85.3,200.9l-1.3,49c-13.7,8.7-27.2,17.7-40.8,26.5-.3,0-.6,0-.9,0-.8-1.4.7-3.8,1.3-5,4.2-7.9,9.7-15.9,14.3-23.6s1.7-2.9,2.6-4.3c1.2-1.7,1.7-2.8,2.6-4.3.2-.3.5-.7.9-1.3,1.1-1.9,2-3.2,3-5.2.9-1.6,2.1-3.1,3-4.8,5-8.6,10.6-17,13.9-26.5.5-.3.9-.8,1.3-.9v.4Z"/>
                <path class="st75" d="M64,237.8c1-1.7,2-3.5,3-5.2-1,2-1.9,3.4-3,5.2Z"/>
                <path class="st75" d="M67,232.6c.8-1.6,1.4-3.7,3-4.8-1,1.6-2.1,3.2-3,4.8Z"/>
                <path class="st75" d="M60.5,243.4c.9-1.4,1.8-2.9,2.6-4.3-.9,1.5-1.4,2.7-2.6,4.3Z"/>
                <path class="st75" d="M57.9,247.8c.3-1.8,1.7-3,2.6-4.3-.9,1.4-1.7,2.9-2.6,4.3Z"/>
                <path class="st75" d="M63.1,239.1c.3-.5.6-.9.9-1.3-.4.6-.7,1-.9,1.3Z"/>
                <path class="st62" d="M103,208.3c8.6,4.1,16.9,9.3,25.6,13.5-3.9,3-8.1,5.1-12.1,7.8l-29.5-26.9c0-.2-1.4-1.5-1.7-1.7v-.4c5.9,2.5,12,5,17.8,7.8Z"/>
                <path class="st71" d="M87,202.6c6.4,11,11.2,23.2,18.2,33.8-7.1,4.6-14.2,9-21.3,13.5l1.3-49c.3.2,1.6,1.6,1.7,1.7Z"/>
                <path class="st55" d="M116.5,229.5c-3.7,2.4-7.6,4.6-11.3,6.9-7-10.7-11.8-22.8-18.2-33.8l29.5,26.9Z"/>
              </g>
            </g>
          </g>
        </g>
      </g>
    </g>
    <g>
      <path class="st49" d="M274,380.5c0-.2.9-1.4.4-2.2v-250.1c1-2.9,3.3-5.2,6.3-6.3h210c3.1,1.1,5.6,3,6.7,6.3v255.1c-1,3.1-3.4,4.9-6.3,6.3h-212.6c-3.3-.8-6.9-4.4-5.9-8s1.2-.2,1.3-1.1Z"/>
      <path class="st41" d="M294.6,132.8h184.4c4.9.9,7.5,3.6,8.5,8.5l-.4,230.8c-1.4,3.2-3.4,5.2-6.7,6.3h-188.7c-3.5-1.2-5.6-3.3-6.7-6.7v-231.7c1.6-4.8,4.9-6.8,9.8-7.2Z"/>
      <g>
        <path class="st41" d="M274,380.5l.4-2.2c.4.8-.4,2-.4,2.2Z"/>
        <polygon class="st25" points="298.1 356.7 473.4 356.7 474 358.6 298.1 359.3 298.1 356.7"/>
        <polygon class="st25" points="298.1 361.9 473.4 361.9 473.6 364.3 298.1 364.5 298.1 361.9"/>
        <path class="st25" d="M298.1,351.5h175.3l.7,2-172.5.7c-1.6-1.1-5.9.7-3.5-2.6Z"/>
        <path class="st25" d="M298.1,367.1h174c1.1.8,1.8,0,1.5,2l-175.5.7v-2.6Z"/>
        <g>
          <g>
            <polygon class="st23" points="308.7 343.2 351.7 300.7 351.9 344.1 308.7 343.2"/>
            <polygon class="st23" points="351.7 300.7 308.7 343.2 308.9 300.7 351.7 300.7"/>
          </g>
          <g>
            <path class="st68" d="M364.2,343.2l42.5-42.5c1.8,1.1.5,38.5.7,43.4l-43.2-.9Z"/>
            <path class="st49" d="M406.8,300.7l-42.5,42.5.2-42.5c5.5,1.1,40-1.4,42.3,0Z"/>
          </g>
          <g>
            <path class="st64" d="M467.9,321.1c.6,15.6-11.3,27.1-26.5,27.3l-.4-21.3c2-1.9,4.1-4.1,6.1-6.1h20.8Z"/>
            <path class="st1" d="M441.5,295.9l.4,23.9c-.4.4-.9.9-1.3,1.3h-26c.5-14.4,12.6-25.5,26.9-25.2Z"/>
            <path class="st30" d="M440.6,321.1c-.8.8-5.8,6.4-6.3,6.5-1.7.2-5.7-5.6-6.1-5.6-.6,0-2.9,2.2-2.8,2.8.1,1,7.4,7.5,8.5,8.9.5,0,6.3-5.7,7.2-6.5l.4,21.3c-15.3.2-27.4-11.9-26.9-27.3h26Z"/>
            <path class="st32" d="M467.9,321.1h-20.8c3.8-3.9,7.1-8.3,11.3-11.9l-2.4-3.3c-5.2,4.1-9.4,9.3-14.1,13.9l-.4-23.9c13.9.3,25.9,10.8,26.5,25.2Z"/>
            <path class="st41" d="M447.1,321.1c-1.9,2-4.1,4.1-6.1,6.1s-6.6,6.6-7.2,6.5c-1.1-1.4-8.4-7.9-8.5-8.9s2.2-2.9,2.8-2.8,4.3,5.9,6.1,5.6,5.5-5.7,6.3-6.5.9-.9,1.3-1.3c4.7-4.6,8.9-9.8,14.1-13.9l2.4,3.3c-4.2,3.6-7.5,8-11.3,11.9Z"/>
          </g>
        </g>
        <g>
          <path class="st41" d="M359.9,209.1c-5.9-2.9-11.9-5.7-17.8-8.7l-.4.4c-.6,0-1.1,1.1-1.3,1.3-4,3-8.1,7.3-11.7,10.8-12.9-8-18.3-23.9-10.4-37.5s14.6-13.5,22.6-13.7c12.4-.3,25.9,10.8,27.3,23.2,1.1,9.9-2.6,16.6-8.2,24.1Z"/>
          <g>
            <path class="st4" d="M340.8,144.5v17.4c-7.9.2-18.6,6.8-22.6,13.7-7.9,13.6-2.5,29.5,10.4,37.5-10.7,10.3-20.5,21.5-31.7,31.2-.2-32.2.1-64.4,0-96.5.2-.8,2.4-3.1,3.3-3.3,6.6-1.6,31.9,0,40.6,0Z"/>
            <path class="st6" d="M430.6,144.5c1.2,10.2-1.6,24.1,0,33.8,0,.1,0,.3,0,.4-.3,0-.6.3-.9.4-1.1.7-1.7,1.7-2.6,2.6-12.5,12-24.9,26.3-38.2,37.3-.8-1.2-.4-3.3-.4-4.8,0-20.6,0-41.4.4-62,0-2.6.7-5.2,0-7.8,13.9,0,27.8,0,41.7,0Z"/>
            <path class="st76" d="M474.9,210.9l-44.3-32.5c-1.6-9.8,1.2-23.6,0-33.8,8.8,0,34.9-1.7,41.4,0s2.6,1.9,2.8,2.4c1.3,21.3,0,42.7,0,64Z"/>
            <path class="st6" d="M389,144.5c.7,2.6,0,5.2,0,7.8l-.4,62c0,1.4-.4,3.6.4,4.8-1.2,1-2,2-3.5,3-8.5-4.3-17-8.8-25.6-13,5.6-7.5,9.4-14.2,8.2-24.1-1.4-12.4-14.9-23.5-27.3-23.2v-17.4c16,0,32.1,0,48.2,0Z"/>
            <path class="st28" d="M388.5,214.4l.4-62c-.4,20.6-.5,41.4-.4,62Z"/>
          </g>
          <g>
            <path class="st77" d="M417.2,211.3c-6.7,12.8-12.1,26.4-18.2,39.5s-8.3,18.5-13.9,26.9c-29,0-58-.3-87,.4l-1.1-.9c1.1-.4,3-.8,3.9-1.3,21.7-7.4,43.1-19.7,62.7-31.7s34-24,51.8-46.2,8.4-10.5,11.7-16.3c.9-.9,1.5-1.9,2.6-2.6-3,11.2-8.1,21.5-12.6,32.1Z"/>
            <path class="st46" d="M431.1,179.2l2.2,98.5c-16,0-32.1,0-48.2,0,5.6-8.4,9.6-17.8,13.9-26.9,7-12.7,12.5-26.2,18.2-39.5,4.5-10.6,9.6-21,12.6-32.1.2-.2.6-.4.9-.4.1.6.4.4.4.4Z"/>
            <path class="st34" d="M441.9,203.1c5,12.3,10.9,25.1,17.4,36.9.7,1.6.9,4.5,2.6,5.6l13.5,29.9c0,.6.2,1.9-.2,2.2-14,0-27.9,0-41.9,0l-2.2-98.5c1.5,6,8,17.7,10.8,23.9Z"/>
            <path class="st58" d="M474.9,210.9c0,18.5,2.9,47.4.4,64.6l-13.5-29.9c-.2-2.2-1.6-3.9-2.6-5.6-5.7-12.4-11.7-24.5-17.4-36.9s-9.4-17.9-10.8-23.9-.3.2-.4-.4,0-.3,0-.4l44.3,32.5Z"/>
            <path class="st61" d="M300.9,276c13.6-7.7,26.6-17.7,39.9-26,6.9-4.4,13.9-8.6,20.8-13s7.6-4.5,11.3-6.9,8.6-4.8,12.6-7.8,2.3-2.1,3.5-3c13.3-11,25.6-25.3,38.2-37.3-3.3,5.7-7.6,11.1-11.7,16.3-17.8,22.2-27.5,31.3-51.8,46.2s-41,24.2-62.7,31.7Z"/>
            <path class="st39" d="M417.2,211.3c-5.7,13.3-11.2,26.8-18.2,39.5,6.1-13.1,11.5-26.7,18.2-39.5Z"/>
            <path class="st40" d="M459.3,240c-6.5-11.8-12.3-24.6-17.4-36.9,5.7,12.3,11.7,24.5,17.4,36.9Z"/>
            <path class="st40" d="M461.9,245.6c-1.7-1.2-1.9-4.1-2.6-5.6,1,1.8,2.4,3.5,2.6,5.6Z"/>
            <g>
              <path class="st70" d="M340.8,249.9c-13.3,8.4-26.3,18.3-39.9,26s-2.8.9-3.9,1.3c0-.1,0-.3,0-.4,15-24.5,31.4-48.5,43.4-74.6.2-.2.7-1.3,1.3-1.3l-.9,49Z"/>
              <path class="st3" d="M297,276.8c-1.4-5.8,0-25.2,0-32.5,11.2-9.8,21-21,31.7-31.2s7.7-7.8,11.7-10.8c-11.9,26.1-28.4,50.1-43.4,74.6Z"/>
              <path class="st62" d="M359.9,209.1c8.6,4.2,17.1,8.7,25.6,13-4,3-8.4,5.1-12.6,7.8-9.9-8.4-18.9-18.8-28.4-27.3s-.6.5-.7.4c-.8-.6-1.6-1.6-1.7-2.6,5.9,3,11.9,5.8,17.8,8.7Z"/>
              <path class="st71" d="M343.8,203.1l17.8,33.8c-6.9,4.4-13.9,8.7-20.8,13l.9-49,.4-.4c0,1,1,2,1.7,2.6Z"/>
              <path class="st55" d="M372.9,230c-3.7,2.4-7.6,4.6-11.3,6.9l-17.8-33.8s.2-.9.7-.4c9.5,8.5,18.5,19,28.4,27.3Z"/>
            </g>
          </g>
        </g>
      </g>
    </g>
  </g>
</svg>