<?xml version="1.0" encoding="UTF-8"?>
<svg id="Ebene_1" xmlns="http://www.w3.org/2000/svg" xmlns:xlink="http://www.w3.org/1999/xlink" version="1.1" viewBox="0 0 512 512">
  <!-- Generator: Adobe Illustrator 29.8.1, SVG Export Plug-In . SVG Version: 2.1.1 Build 2)  -->
  <defs>
    <style>
      .st0 {
        fill: #f9ae21;
      }

      .st1 {
        fill: #53af4a;
      }

      .st2 {
        fill: #fcbc02;
      }

      .st3 {
        fill: #fbe74e;
      }

      .st4 {
        fill: #4fcfdf;
      }

      .st5 {
        fill: #20719a;
      }

      .st6 {
        fill: #413e4b;
      }

      .st7 {
        fill: #519fbf;
      }

      .st8, .st9 {
        fill: #e2e2e2;
      }

      .st10 {
        fill: #c9dfdb;
      }

      .st11 {
        fill: #eae394;
      }

      .st12 {
        fill: #180f07;
      }

      .st13 {
        fill: #fe9610;
      }

      .st14 {
        fill: #281714;
      }

      .st15 {
        fill: #e56c2e;
      }

      .st16 {
        fill: #030403;
      }

      .st17 {
        fill: #c5d547;
      }

      .st18 {
        fill: #f61347;
      }

      .st19 {
        fill: #fafbf8;
      }

      .st20 {
        fill: #a49e9e;
      }

      .st21 {
        fill: #4ecdc4;
      }

      .st22 {
        fill: #232122;
      }

      .st23 {
        fill: #fae1c4;
      }

      .st24 {
        fill: url(#Unbenannter_Verlauf_354);
      }

      .st25 {
        fill: url(#Unbenannter_Verlauf_353);
      }

      .st26 {
        fill: url(#Unbenannter_Verlauf_357);
      }

      .st27 {
        fill: url(#Unbenannter_Verlauf_356);
      }

      .st28 {
        fill: url(#Unbenannter_Verlauf_355);
      }

      .st29 {
        fill: #bfbfbf;
      }

      .st9 {
        stroke: #bfbfbf;
        stroke-miterlimit: 10;
        stroke-width: 16px;
      }

      .st30 {
        fill: #0689b4;
      }

      .st31 {
        fill: #f81416;
      }

      .st32 {
        fill: #45a212;
      }

      .st33 {
        fill: #f44e1d;
      }

      .st34 {
        fill: #41bdd5;
      }

      .st35 {
        fill: #c4cfd2;
      }

      .st36 {
        fill: #f4e8e5;
      }

      .st37 {
        fill: #90d3d7;
      }

      .st38 {
        fill: #e9f7fc;
      }
    </style>
    <linearGradient id="Unbenannter_Verlauf_353" data-name="Unbenannter Verlauf 353" x1="254.94" y1="81.62" x2="479.04" y2="212.69" gradientUnits="userSpaceOnUse">
      <stop offset="0" stop-color="#f04644"/>
      <stop offset=".55" stop-color="#fba232"/>
      <stop offset="1" stop-color="#fbc21b"/>
    </linearGradient>
    <linearGradient id="Unbenannter_Verlauf_354" data-name="Unbenannter Verlauf 354" x1="186.28" y1="259.06" x2="312.5" y2="278.27" gradientUnits="userSpaceOnUse">
      <stop offset="0" stop-color="#fce3d3"/>
      <stop offset="1" stop-color="#fdf5f0"/>
    </linearGradient>
    <linearGradient id="Unbenannter_Verlauf_355" data-name="Unbenannter Verlauf 355" x1="264.34" y1="283.31" x2="348.59" y2="285.02" gradientUnits="userSpaceOnUse">
      <stop offset="0" stop-color="#fdc50d"/>
      <stop offset="1" stop-color="#f99a35"/>
    </linearGradient>
    <linearGradient id="Unbenannter_Verlauf_356" data-name="Unbenannter Verlauf 356" x1="209.34" y1="292.04" x2="229.75" y2="292.78" gradientUnits="userSpaceOnUse">
      <stop offset="0" stop-color="#fdc40d"/>
      <stop offset="1" stop-color="#fca916"/>
    </linearGradient>
    <linearGradient id="Unbenannter_Verlauf_357" data-name="Unbenannter Verlauf 357" x1="169.71" y1="224.41" x2="196.94" y2="225.11" gradientUnits="userSpaceOnUse">
      <stop offset="0" stop-color="#fdc30a"/>
      <stop offset="1" stop-color="#fb971b"/>
    </linearGradient>
  </defs>
  <circle class="st9" cx="256" cy="256" r="240"/>
  <g id="Generatives_Objekt">
    <g>
      <path class="st8" d="M482.14,180c-.52,12.25,4.05,13.22,7.66,23.83.24.7.63,1,.85,1.7,24.54,79.67-17.29,181.19-78.73,233.22C253.66,572.78,10.32,455.89,15.7,249.37,20.45,67.19,222.76-42.23,379.58,50.62c46.22,27.36,88.78,76.98,102.57,129.38Z"/>
      <g>
        <path class="st22" d="M78.69,258.31l-24.68.43c1.65,49.28,18.55,96.01,50.65,133.21,1-4.87,20.27-8.75,20.85-12.34.34-2.08-6.7-5.07-3.4-6.38,32.45,37.57,81.91,59.5,131.51,60.43l.43,50.65c.76,1.37,1.64.99,2.55,1.28s3.02-.05,4.26,0l-2.55,1.7c-128.18,1.41-234.33-102.21-234.07-230.67,1.36.44,1.76-.89,2.55-.85,17.17.75,34.28,1.21,51.5.85l.43,1.7Z"/>
        <path class="st14" d="M258.28,487.28l2.55-1.7c55.1,2.17,119.13-29.27,157.47-67.24,2.21-2.18,1.57-3.27,1.7-3.4.15-.15,1.86-.9,3.4-2.55,41.1-43.99,61.29-94.45,62.14-154.91,0-.62,0-1.12,0-1.7-.08-43.42-10.24-79.51-32.34-116.61-5.2-8.72-23.21-36.91-31.49-40.86-29.84-33.16-70.69-54.95-114.06-64.69-16.65-3.74-33.09-6.62-50.22-6.81-.85,0-1.71,0-2.55,0-117.61.16-218.2,92.7-228.12,209.82-.33,3.91-.93,14.01,0,17.45.12.46-.06,1.16,0,1.7-.79-.03-1.2,1.29-2.55.85.4-201.79,242.45-306.6,390.27-169.38,152.63,141.68,51.91,397.77-156.19,400.05Z"/>
        <path class="st21" d="M407.24,408.12c3.55,3.5,7.61,6.61,11.07,10.21-38.34,37.97-102.37,69.41-157.47,67.24-1.24-.05-3.37.28-4.26,0-1.8-5.64-.11-10.65,0-16.17,57.05-.99,108.93-23.26,150.66-61.28Z"/>
        <path class="st30" d="M254.88,26.79c2.41,7.85-.02,16.03,0,23.83-106.46.85-199.92,89.15-203.43,196.2.59.82,11.62.4,13.62.43,4.8.05,9.78.48,14.47-.85-.38,2.55.73,5.22-1.28,7.66H26.76c-.93-3.44-.33-13.54,0-17.45C36.68,119.49,137.27,26.95,254.88,26.79Z"/>
        <path class="st1" d="M485.55,257.46c-.85,60.47-21.03,110.93-62.14,154.91-4.56-3.35-7.96-7.96-11.92-11.92,35.87-33.87,56.43-86.81,56.6-136.19l-35.32-.85c.13-1.08-.28-3.24,0-3.83,2.23-4.69,44.91-.54,52.77-2.13Z"/>
        <path class="st15" d="M421.71,98.29c-.34-.16-4.85-.97-5.96-1.28,4.79,3.48-4.27,7.29.85,9.36l2.98-5.53c7.51.92,9.07,11.2,15.75,14.9-4.95,6.05-11.78,1.64-17.87,1.28-23.54-27.06-60.4-51.13-94.48-62.14-6.08-1.96-12.49-3.74-18.73-5.11l3.4-16.17c43.37,9.74,84.22,31.53,114.06,64.69Z"/>
        <path class="st13" d="M485.55,255.76h-17.02c1.22-37.39-9.55-73.59-28.09-105.55,5.39-.32,4.81-5.38,7.66-8.51.84-.92,4.22-1.53,5.11-2.55,22.1,37.1,32.27,73.19,32.34,116.61Z"/>
        <path class="st31" d="M307.65,33.6l-3.4,16.17c-13.02-2.86-26.24-4.94-39.58-5.11-.88.35-.17,1.97-.43,2.55-.97,2.2-1.57,28.89-.85,30.22,1.11,2.05,9-.29,9.36,2.98-4.85-.65-9.6-.89-14.47-1.28l-.85-52.35c17.13.19,33.57,3.07,50.22,6.81Z"/>
        <path class="st0" d="M421.71,98.29c8.29,3.95,26.3,32.14,31.49,40.86-.89,1.02-4.27,1.63-5.11,2.55l-1.7-2.98-4.68,6.38.85-7.66c-2.88,1.55-3.37,6.76-4.68,8.51-5.9-9.62-13.04-20.45-20.43-28.94,6.1.36,12.93,4.77,17.87-1.28-6.68-3.7-8.24-13.98-15.75-14.9l-2.98,5.53c-5.13-2.08,3.94-5.88-.85-9.36,1.11.31,5.62,1.11,5.96,1.28Z"/>
        <path class="st32" d="M411.5,400.46c3.96,3.95,7.35,8.57,11.92,11.92-1.54,1.65-3.26,2.4-3.4,2.55l-35.75-34.47c-.35-1.72,2.25-3.32,2.55-3.83,8.26,7.87,16.62,15.77,24.68,23.83Z"/>
        <path class="st25" d="M322.12,57.43c45.52,14.68,82.86,44.65,108.95,84.27-3.7,1.5-3.15,7.4-.43,8.51,2.11.86,2.82-1.65,2.98-1.7,2.96-.96,1.99.47,4.26-2.55.88,1.43,1.71,2.8,2.55,4.26,18.54,31.96,29.31,68.16,28.09,105.55-4.71,0-34.57.72-35.75-1.28.69-68.43-43.45-135.53-106.82-161.3-17.25-7.01-34.85-10.3-53.2-12.77-.37-3.27-8.26-.93-9.36-2.98-.72-1.33-.12-28.01.85-30.22,19.67.72,39.19,4.19,57.88,10.21Z"/>
        <path class="st37" d="M407.24,408.12c-41.73,38.02-93.61,60.3-150.66,61.28.24-11.9-.53-23.86.43-35.75,46.4-.78,90.92-19.05,124.27-51.07,1.88-.19,22.81,22.43,25.96,25.54Z"/>
        <path class="st17" d="M411.5,400.46c-8.07-8.06-16.42-15.97-24.68-23.83,30.04-50.32,38.35-49.44,45.96-113.21l35.32.85c-.18,49.38-20.73,102.32-56.6,136.19Z"/>
        <path class="st34" d="M255.73,77.01c-.27,1.01.07,1.77-1.28,2.55-80.97-.98-155.06,59.25-171.51,138.32-1.96,9.43-2,19.08-3.4,28.51-4.69,1.33-9.67.9-14.47.85-1.85-104.21,87.45-184.15,188.54-186.41l2.13,16.17Z"/>
        <path class="st34" d="M254.88,50.62c.02,7.47,2.68,19.47.85,26.39l-2.13-16.17c-101.09,2.26-190.38,82.2-188.54,186.41-2-.02-13.03.4-13.62-.43,3.51-107.05,96.98-195.35,203.43-196.2Z"/>
        <path class="st2" d="M417.45,117.01c7.38,8.49,14.53,19.32,20.43,28.94-2.27,3.02-1.3,1.59-4.26,2.55,4.38-5.45-1.23-4.81-2.55-6.81-26.1-39.62-63.43-69.59-108.95-84.27l.85-2.55c34.08,11,70.94,35.07,94.48,62.14Z"/>
        <path class="st13" d="M304.25,49.77c6.24,1.37,12.65,3.15,18.73,5.11l-.85,2.55c-18.69-6.03-38.21-9.49-57.88-10.21.26-.58-.45-2.21.43-2.55,13.34.17,26.56,2.24,39.58,5.11Z"/>
        <path class="st33" d="M448.1,141.7c-2.85,3.14-2.27,8.19-7.66,8.51-.84-1.45-1.68-2.83-2.55-4.26,1.31-1.75,1.8-6.96,4.68-8.51l-.85,7.66,4.68-6.38,1.7,2.98Z"/>
        <path class="st19" d="M433.63,148.51c-.16.05-.87,2.56-2.98,1.7-2.72-1.11-3.27-7.01.43-8.51,1.32,2,6.93,1.36,2.55,6.81Z"/>
        <g>
          <path class="st6" d="M78.69,258.31c.96,41.63,16.19,83.4,43.41,114.91-3.3,1.31,3.74,4.3,3.4,6.38-.58,3.59-19.85,7.47-20.85,12.34-32.1-37.2-49-83.93-50.65-133.21l24.68-.43Z"/>
          <g>
            <path class="st20" d="M78.26,334.92c9.48-1.61,9.97,18.01-2.98,11.49,1.23-3.92-3.61-10.37,2.98-11.49Z"/>
            <path class="st36" d="M78.26,336.62c6.57-1.85,3.2,5.03.85,5.11-2.99.1-3.8-4.28-.85-5.11Z"/>
          </g>
        </g>
        <g>
          <path class="st8" d="M257.43,26.79l.85,52.35c4.87.39,9.62.62,14.47,1.28,18.35,2.47,35.95,5.75,53.2,12.77,63.38,25.77,107.51,92.86,106.82,161.3,1.18,2,31.04,1.28,35.75,1.28h17.02c0,.58,0,1.08,0,1.7-7.86,1.59-50.54-2.57-52.77,2.13-.28.59.13,2.75,0,3.83-7.62,63.77-15.92,62.89-45.96,113.21-.3.51-2.9,2.11-2.55,3.83l35.75,34.47c-.13.14.5,1.22-1.7,3.4-3.45-3.61-7.51-6.72-11.07-10.21-3.15-3.11-24.08-25.73-25.96-25.54-33.35,32.03-77.88,50.29-124.27,51.07-.95,11.89-.19,23.85-.43,35.75-.11,5.52-1.8,10.53,0,16.17-.91-.29-1.79.1-2.55-1.28l-.43-50.65c-49.6-.94-99.06-22.87-131.51-60.43-27.22-31.51-42.45-73.28-43.41-114.91l-.43-1.7c-17.21.36-34.32-.1-51.5-.85-.06-.54.12-1.25,0-1.7h51.5c2.01-2.44.9-5.11,1.28-7.66,1.41-9.43,1.44-19.08,3.4-28.51,16.45-79.07,90.54-139.3,171.51-138.32,1.34-.79,1.01-1.54,1.28-2.55,1.83-6.91-.83-18.92-.85-26.39-.02-7.8,2.41-15.98,0-23.83.85,0,1.71,0,2.55,0Z"/>
          <path class="st12" d="M247.64,81.26c1.9.02,7.2-.72,8.09,1.28l.43,32.77,2.13-33.62c2.34-3.3,54.85,6.48,61.28,11.92l-10.64,31.07,13.62-30.64c21.26,9.43,41.82,21.28,57.45,38.73l-31.49,31.49,33.62-30.22c7.3,9.08,15.47,17.77,21.71,27.66,2.03,3.23,14.43,26.26,14.47,28.09.09,4.72-28.4,11.14-32.34,15.32l32.77-11.49c6.09,6.27,15.6,58.67,11.92,61.28l-35.32,1.28,35.32,1.28c3.65,7.38-7.61,61.12-11.92,62.14l-32.77-10.64,32.34,12.77c-7.96,21.63-21.42,40.77-37.03,57.45l-32.34-31.49,30.22,33.62c-.46,4.52-49.81,38.74-58.73,36.6l-12.34-30.22,10.64,31.92c-19.65,7.49-40.98,12.38-62.14,11.07l-1.28-34.47-1.28,34.47c-20.88,1.29-41.89-3.72-61.28-11.07l10.64-31.92-13.62,30.64c-21.64-8.36-41.05-21.62-57.45-37.88l31.49-32.34-33.62,30.22c-4.71-.48-35.78-48.33-36.18-54.9-.19-3.09.04-2.37,2.13-3.83,6.07-4.26,22.57-6.11,29.37-11.49l-32.77,10.64c-7.61-19.63-12.68-40.98-11.07-62.14l35.32-.43c-.09-2.27-1.51-1.87-2.98-2.13-4.79-.84-31.03.94-32.34,0-3.42-7.26,7.7-60.3,11.92-61.28l31.92,10.64-31.49-12.77c.7-8.91,31.85-57.6,37.88-56.6l31.49,30.64-30.22-32.77c15.42-16.89,35.77-28.61,56.6-37.88l15.32,29.79-11.49-31.07c1.75-3.67,47.72-11.55,54.05-11.49Z"/>
          <g>
            <path class="st16" d="M370.64,225.11c0-.56,0-1.14,0-1.7,9.58,3.01,8.34-12.19,0-11.07,0-.56,0-1.14,0-1.7,10.46,2.55,3.93-10.72,6.81-17.45l-6.81-1.28c-.05-.55.09-1.16,0-1.7l7.66.43v144.7l-9.36-.85,7.66-1.7.85-105.55-6.81-2.13Z"/>
            <path class="st35" d="M380.43,337.47c1.85.17,5.98,1.19,5.53,3.83-.62,1.13-6.02-2.37-5.53-3.83Z"/>
            <path class="st8" d="M127.63,170.64c1.31-.38,6.1,2.58,5.53,3.83-1.08.53-6.57-2.08-5.53-3.83Z"/>
            <path class="st8" d="M383.83,171.49c3.91.06-3.65,4.96-4.26,5.11-1.44-1.82,3.92-5.11,4.26-5.11Z"/>
            <path class="st8" d="M341.27,127.23c3.35-.35-1.09,5.61-1.7,5.96l1.7-5.96Z"/>
            <path class="st8" d="M171.89,126.38c.67-.34,5.15,4.76,2.55,5.96l-2.55-5.96Z"/>
            <path class="st8" d="M171.89,380.03c4.06-2.19-.36,5.62-1.7,5.11-.86-.87,1.47-4.98,1.7-5.11Z"/>
            <path class="st8" d="M388.09,324.7l4.68,2.98c-.91,1.33-5.64-1.03-4.68-2.98Z"/>
            <path class="st19" d="M337.87,379.18c.63-.24,4.81,4.47,3.4,5.11-1.7.41-4.75-4.59-3.4-5.11Z"/>
            <path class="st19" d="M122.52,184.26c.3-.04,4.99,3.52,1.7,4.26-1.25.28-4.73-3.82-1.7-4.26Z"/>
            <path class="st8" d="M374.47,158.72c1.91,1.89-3.83,5.3-4.26,5.11-1.24-2.48,3.34-3.05,4.26-5.11Z"/>
            <path class="st8" d="M389.79,185.11c4.1.61-1.89,5.23-3.83,2.13.94-.16,3.61-2.16,3.83-2.13Z"/>
            <path class="st8" d="M138.69,158.72l4.68,3.83c-1.02,2.2-6.58-2.97-4.68-3.83Z"/>
            <path class="st8" d="M161.68,368.96l-.43,2.98-2.98,2.13c-1.83-.81,3.04-4.54,3.4-5.11Z"/>
            <path class="st8" d="M186.36,119.57c1.1-.55,3.94,4.68,1.7,5.11l-1.7-5.11Z"/>
            <path class="st38" d="M405.11,271.93c.7-.47,3.83.29,3.83,1.28,0,2.6-6.99.87-3.83-1.28Z"/>
            <path class="st8" d="M160.82,135.74l3.4,5.11c-1.93.74-5.71-3.76-3.4-5.11Z"/>
            <path class="st8" d="M353.19,138.29l-2.55,5.11c-2.7-1.77,1.65-3.6,2.55-5.11Z"/>
            <path class="st8" d="M371.92,350.24l3.4,4.26c-1.36-.14-6.41-4.13-3.4-4.26Z"/>
            <path class="st8" d="M124.22,323c3.66.59-3.91,5.29-3.83,2.13.01-.5,3.61-2.16,3.83-2.13Z"/>
            <path class="st8" d="M404.26,282.99c.21-.05,3.41,1.46,3.83,2.13l-4.68.43c-1.13-.57.21-2.41.85-2.55Z"/>
            <path class="st19" d="M239.98,103.39c.22,0,2.13,3.63.85,4.26-3.07,1.51-2.44-4.3-.85-4.26Z"/>
            <path class="st8" d="M129.33,336.62c2.94.34-2.31,4.22-2.55,4.26-3.52.46,2.14-4.24,2.55-4.26Z"/>
            <path class="st8" d="M185.51,387.69c1.48-.34.56,3.7.43,3.83-2.64,2.59-3.2-2.15-.43-3.83Z"/>
            <path class="st19" d="M349.79,370.66c2.1.05,5.05,4.23,2.55,4.26-.25,0-3.84-3.11-2.55-4.26Z"/>
            <path class="st8" d="M105.5,282.99c4.79-1.23,2.78,2.93,0,2.55-1.22-.17-1.43-2.18,0-2.55Z"/>
            <path class="st8" d="M326.8,121.27c2.72-.29.44,4.89-.85,4.26s.6-4.23.85-4.26Z"/>
            <path class="st8" d="M217,107.65c2.25-1.18,2.92,2.56,1.7,3.4s-3.22-2.61-1.7-3.4Z"/>
            <path class="st8" d="M324.25,386.84c1.37-.69,3.99,3.63,1.7,4.26l-1.7-4.26Z"/>
            <path class="st8" d="M400.86,294.91c.81-.41,3.82,1.08,3.83,1.28.14,2.79-6.63.15-3.83-1.28Z"/>
            <path class="st19" d="M228.07,105.1c2.07-1.11,2.91,4.33.85,4.26-.22,0-2.12-3.57-.85-4.26Z"/>
            <path class="st8" d="M238.28,404.71c1.4-1.11,3.3,2.9,0,4.26-.66-.89-.74-3.66,0-4.26Z"/>
            <path class="st8" d="M271.48,404.71c.98-.04,2.03,3.44.85,4.26-2.06,1.43-2.35-4.19-.85-4.26Z"/>
            <path class="st8" d="M405.96,226.82c3.93.95-1.54,4.43-2.98,2.13-.55-.88,2.8-2.17,2.98-2.13Z"/>
            <path class="st19" d="M401.71,215.75c3.6-.62,3.6,3.17,0,2.55-1.32-.23-1.32-2.33,0-2.55Z"/>
            <path class="st10" d="M138.69,347.68c.52-.07,1.09-.11,1.28.43-1.55,1.33-2.86,4.07-5.11,2.55.79-.43,3.59-2.95,3.83-2.98Z"/>
            <path class="st8" d="M284.25,105.1c2,.07,1.55,2.91.85,3.4-1.63,1.15-2.97-3.48-.85-3.4Z"/>
            <path class="st19" d="M108.9,294.06c2.14-.02,2.52,2.11.85,2.55-3.23.85-3.34-2.53-.85-2.55Z"/>
            <path class="st8" d="M103.8,271.93c.72-.25,3.06-.14,3.83.43-1.87,2.84-7.14.72-3.83-.43Z"/>
            <path class="st8" d="M274.03,103.39c.6.35,1.29,3.93-.85,4.26s.16-4.67.85-4.26Z"/>
            <path class="st19" d="M293.61,401.31c1.23-.72,3.18,2.54,1.7,3.4-1.23.72-3.18-2.54-1.7-3.4Z"/>
            <path class="st19" d="M228.07,403.86c1.58-.26.66,5.17-.85,4.26l.85-4.26Z"/>
            <path class="st8" d="M105.5,225.96c.18-.02,3.53,1.23,2.98,2.13-2.41,2.18-5.73-1.83-2.98-2.13Z"/>
            <path class="st19" d="M108.05,214.9c.81-.34,3.81,1.01,3.83,1.28.16,1.72-5.24,1.33-3.83-1.28Z"/>
            <path class="st19" d="M295.31,107.65c.72-.03,2.1,2.72.85,3.4-3.09,1.69-1.66-3.37-.85-3.4Z"/>
            <path class="st19" d="M216.15,401.31c2.52-.12.9,3.41,0,3.4-1.41,0-1.54-3.33,0-3.4Z"/>
            <path class="st8" d="M103.8,237.88c.75-.5,3.23.07,3.83,1.28-1.48,1.25-6,.18-3.83-1.28Z"/>
            <path class="st8" d="M283.39,403.86c.46,1.67,1.8,3.23,0,4.26-.9-1.79-2.14-2.79,0-4.26Z"/>
            <path class="st8" d="M405.96,238.73c1.12-.22,2.38-.23,2.13,1.28-2.52,1.72-4.52-.8-2.13-1.28Z"/>
            <path class="st16" d="M370.64,210.64c-.1-6.02.51-12.87,0-18.73l6.81,1.28c-2.88,6.73,3.65,20-6.81,17.45Z"/>
            <path class="st16" d="M370.64,223.41c-.04-3.68.05-7.39,0-11.07,8.34-1.13,9.58,14.08,0,11.07Z"/>
            <g>
              <path class="st8" d="M370.64,190.21c.09.54-.05,1.15,0,1.7.51,5.85-.1,12.7,0,18.73,0,.56,0,1.14,0,1.7.05,3.68-.04,7.39,0,11.07,0,.56,0,1.14,0,1.7.31,35.44.12,70.96-.43,106.4h-228.12c-.96-48.44-.56-97.04,0-145.55h228.12c.89.63.24,3.15.43,4.26Z"/>
              <g>
                <path class="st4" d="M368.09,210.64c.71,28.14,3.18,62.62.85,90.23l-3.4-.43-5.96-8.09c-13.11-25.82-37.23-43.27-58.31-62.14l-30.64,32.34-11.92-16.17-14.47,15.32c-2.89-2.19-14.69-15.92-17.02-16.17s-11.91,9.02-14.04,11.07c-13.04,13.31-31.44,21.35-45.54,32.34-2.77,2.16-8.68,10.83-9.36,11.07-1.01.35-9.56-.37-10.21-.85-3.57-2.62-.53-78.59-.43-88.52,4.04.63,9.39-.46,13.62,0-7.46,13.8-1.49,34.06,14.04,39.15,24.38,7.99,44.62-18.11,31.92-40.01l160.87.85Z"/>
                <path class="st24" d="M359.57,292.36c-4.37-2.76-11.46-2.84-15.75-5.11-4.58-2.42-20.62-21.03-22.13-21.28-2.96-.5-9.58,8.74-12.77,8.51-1.72-.12-17.16-13.81-19.58-16.17-8.73,8.25-17,16.67-25.11,25.54-3.35-1.9-16.99-9.91-20-9.36-2.29.42-7.96,12.29-9.79,14.47-4.17-4.5-11.73-8.49-15.75-13.62-1.85,0-20.6,26.12-25.11,27.24-3.76.93-16.24-.71-21.28-.85-3.39-.1-6.83.14-10.21,0,.25-1.87-.86-2.09,0-3.83,2.98-6,39.28-28.24,48.09-36.18,3.7-3.33,2.73-4.87,2.98-5.11,2.14-2.04,11.71-11.31,14.04-11.07s14.14,13.98,17.02,16.17l14.47-15.32,11.92,16.17,30.64-32.34c21.08,18.87,45.2,36.32,58.31,62.14Z"/>
                <path class="st28" d="M359.57,292.36l5.96,8.09,3.4.43c-.19,2.31-.49,5.38-.85,7.66-1.53,2.15-1.52,1.52-3.83,1.7-9.46.73-20.55-.02-30.22,0,.37-2.56-2.27-1.65-3.83-1.7-27.99-.95-56.69-.77-84.69-.85-.42-1.21-.57-5.37-.85-5.96,10.91-1.73,13.91-11.68,19.58-17.87,8.11-8.87,16.38-17.28,25.11-25.54,2.41,2.36,17.86,16.05,19.58,16.17,3.19.23,9.8-9.01,12.77-8.51,1.51.25,17.55,18.86,22.13,21.28,4.29,2.27,11.38,2.35,15.75,5.11Z"/>
                <path class="st7" d="M368.94,193.62c1.25,3.35-.94,13.39-.85,17.02l-160.87-.85c-9.38-16.17-37.14-15.47-45.96.85-4.22-.46-9.58.63-13.62,0-1.6-.25-3.06.64-4.26-1.28.59-3.45-1.16-12.38.85-14.9.09-.11-.13-1,.85-.85h223.86Z"/>
                <path class="st12" d="M148.48,309.38c61.8,1.43,123.73.99,185.56.85,9.66-.02,20.76.73,30.22,0,2.31-.18,2.3.45,3.83-1.7-.28,1.79.78,3.78-1.28,5.11h-222.16c-3.37-3.37.3-4.89,3.83-4.26Z"/>
                <path class="st16" d="M145.08,191.92c-.05.56.02,1.14,0,1.7-.98-.15-.76.74-.85.85l-.85-5.53c74.78-2.12,150.51-2.13,225.56,0l-222.58.43c-1.17.84-1.16,1.25-1.28,2.55Z"/>
                <path class="st11" d="M162.1,301.72c3.39.14,6.83-.1,10.21,0l-1.28,6.81c7.52.06,15.05-.09,22.56,0,17.3.2,34.71-.9,51.92-.85,28.01.08,56.7-.1,84.69.85,1.56.05,4.2-.86,3.83,1.7-61.83.14-123.76.58-185.56-.85-6.93-.99-5.77-4.65-3.83-10.21,5.36,1.63,11.93,2.33,17.45,2.55Z"/>
                <path class="st5" d="M368.94,193.62h-223.86c.02-.56-.05-1.15,0-1.7l223.86,1.7Z"/>
                <path class="st23" d="M342.55,318.74c4.79-.04,9.69.21,14.47,0,.84,1.87-.86,5.06-.85,5.96h-41.71c-.25-.91-1.12-8.05-1.7-8.51.28,0,.57,0,.85,0-.13,2.43,1.12,2.35,2.98,2.55,7.5.83,18.1.06,25.96,0Z"/>
                <path class="st29" d="M312.76,316.19l-167.68-.43c55.88-1.47,111.83.12,167.68.43Z"/>
                <path class="st18" d="M356.17,324.7c0,.21,2.76,3.13.43,4.26h-40.86c-2.02-1.17-.9-2.9-1.28-4.26h41.71Z"/>
                <path class="st13" d="M342.55,316.19v2.55c-7.86.06-18.46.83-25.96,0-1.86-.21-3.11-.13-2.98-2.55,9.64.06,19.32-.11,28.94,0Z"/>
                <path class="st33" d="M357.02,318.74c-4.78.21-9.68-.04-14.47,0v-2.55c5.34.06,20.77-2.37,25.11-.85,8.5,2.96-9.79,3.37-10.64,3.4Z"/>
                <path class="st27" d="M234.45,288.95c1.75,1.89,9.41,11.12,10.21,12.77.28.58.43,4.75.85,5.96-17.22-.05-34.62,1.05-51.92.85v-5.96c4.51-1.12,23.26-27.24,25.11-27.24,4.02,5.13,11.58,9.12,15.75,13.62Z"/>
                <path class="st3" d="M264.24,283.84c-5.67,6.2-8.67,16.15-19.58,17.87-.8-1.65-8.46-10.88-10.21-12.77,1.83-2.18,7.5-14.05,9.79-14.47,3.01-.55,16.66,7.46,20,9.36Z"/>
                <path class="st3" d="M193.59,302.57v5.96c-7.5-.09-15.04.06-22.56,0l1.28-6.81c5.04.15,17.52,1.78,21.28.85Z"/>
                <g>
                  <path class="st19" d="M207.21,209.79c12.7,21.89-7.54,48-31.92,40.01-15.54-5.09-21.51-25.36-14.04-39.15,8.83-16.32,36.59-17.02,45.96-.85Z"/>
                  <path class="st26" d="M181.25,202.13c34.28-2.76,32.25,49.8-.85,45.11-25-3.54-24.55-43.06.85-45.11Z"/>
                </g>
              </g>
            </g>
          </g>
        </g>
      </g>
    </g>
  </g>
</svg>